# xmcd
#
# Track frame offsets: 
#        150
#        19185
#        31690
#        44157
#        59366
#        72406
#        85881
#        99789
#        114897
#        129450
#        141923
#        153913
#        173666
#        187384
#        200616
#        214873
#        229588
#        242570
#
# Disc length: 3398 seconds
#
# Revision: 0
# Processed by: cddbd v1.5.2PL0 Copyright (c) Steve Scherf et al.
# Submitted via: ExactAudioCopy v0.99pb4
#
DISCID=f80d4412
DTITLE=Various Artist - AllTimeJazz
DYEAR=1900
DGENRE=Blues
TTITLE0=Louis Armstrong - Back and Blue
TTITLE1=B.B.King - Mistreated Woman
TTITLE2=B.B.King - I gotta find my baby
TTITLE3=Ray Charles - Sinner's prayer
TTITLE4=Ray Charles - Ray's blues
TTITLE5=Billie Holliday and her orchestra - Summertime
TTITLE6=Billie Holliday and her orchestra - Long gone blues
TTITLE7=Cap Calloway and his orchestra - St. James Infirmery
TTITLE8=Fats Weller and his Rhythm - You're not the only Oyster in the
TTITLE8=show
TTITLE9=Jack Teagarden - I gotta right to sing the blues
TTITLE10=Louis Armstrong and his orchestra - Blues for yesterday
TTITLE11=Louis Armstrong and his orchestra - long long jouney
TTITLE12=Louis Armstrong and his orchestra - Predido Street Blues
TTITLE13=Anita O'Day - Georgia on my mind
TTITLE14=Ella Fitzgerald - Basin Street Blues
TTITLE15=Peggy Lee - Blues in the night
TTITLE16=The Nat King Cole Trio - But all I've got is me
TTITLE17=Peggy Lee - A woman alone with the blues
EXTD=
EXTT0=
EXTT1=
EXTT2=
EXTT3=
EXTT4=
EXTT5=
EXTT6=
EXTT7=
EXTT8=
EXTT9=
EXTT10=
EXTT11=
EXTT12=
EXTT13=
EXTT14=
EXTT15=
EXTT16=
EXTT17=
PLAYORDER=
